<?xml version="1.0" encoding="utf-8"?>
<!-- Generator: Adobe Illustrator 16.0.0, SVG Export Plug-In . SVG Version: 6.00 Build 0)  -->
<!DOCTYPE svg PUBLIC "-//W3C//DTD SVG 1.1//EN" "http://www.w3.org/Graphics/SVG/1.1/DTD/svg11.dtd">
<svg version="1.1" id="LOGO" xmlns="http://www.w3.org/2000/svg" xmlns:xlink="http://www.w3.org/1999/xlink" x="0px" y="0px"
	 width="202.603px" height="275.374px" viewBox="0 0 202.603 275.374" enable-background="new 0 0 202.603 275.374"
	 xml:space="preserve">
<path fill="#FFFFFF" d="M96.57,0v220.343c0,3.671-2.99,6.648-6.686,6.648H6.697c-3.696,0-6.697-2.978-6.697-6.648V0h35.864v191.596
	h24.854V0H96.57z M141.644,226.991V35.396h24.852v191.596h35.859V6.638c0-3.667-3-6.638-6.692-6.638h-83.191
	c-3.695,0-6.69,2.972-6.69,6.638v220.353H141.644z M0.697,270.334c-0.088,0.419-0.152,0.747-0.189,0.984
	c-0.037,0.239-0.059,0.552-0.059,0.936c0,1.312,0.487,2.228,1.453,2.736c0.503,0.258,1.06,0.384,1.674,0.384
	c2.269,0,4.683-1.516,7.23-4.552c1.469-1.769,3.491-4.784,6.056-9.053l0.206-0.006l-0.722,2.582
	c-0.54,1.923-0.973,3.525-1.316,4.809c-0.204,0.709-0.353,1.348-0.444,1.913c-0.086,0.558-0.139,1.079-0.139,1.55
	c0,0.928,0.262,1.608,0.771,2.047c0.514,0.437,1.173,0.652,1.976,0.652c1.549,0,3.228-1.002,5.036-3.014
	c0.913-1.01,1.793-2.198,2.632-3.587l-0.788-0.518c-0.666,0.816-1.159,1.437-1.487,1.833c-0.518,0.653-0.883,1.085-1.085,1.285
	c-0.427,0.436-0.786,0.762-1.07,0.973c-0.294,0.209-0.572,0.313-0.847,0.313c-0.265,0-0.457-0.089-0.567-0.266
	c-0.109-0.167-0.167-0.369-0.167-0.608c0-0.201,0.037-0.46,0.106-0.766c0.077-0.313,0.158-0.65,0.253-1.012l5.427-19.453h-4.165
	c-1.118,3.071-1.978,5.318-2.575,6.721c-0.971,2.269-2.03,4.329-3.184,6.174c-1.289,2.062-2.757,4.055-4.411,5.978
	c-1.647,1.917-3.02,2.884-4.12,2.884c-0.393,0-0.707-0.123-0.951-0.363c-0.241-0.233-0.358-0.564-0.358-0.984
	c0-0.111,0.03-0.286,0.08-0.544c0.06-0.258,0.155-0.617,0.278-1.075l5.371-18.519l0.08-0.45c0.022-0.107-0.006-0.212-0.08-0.324
	c-0.074-0.104-0.163-0.146-0.249-0.134L5.9,250.686l-4.108,0.804v0.76c1.292,0,2.171,0.084,2.638,0.258
	c0.472,0.179,0.701,0.656,0.701,1.441c0,0.161-0.008,0.325-0.039,0.479c-0.027,0.159-0.053,0.319-0.1,0.512L0.697,270.334z
	 M29.338,268.874c-0.164,0.608-0.286,1.143-0.387,1.6c-0.154,0.755-0.228,1.374-0.228,1.829c0,1.188,0.403,2.031,1.199,2.519
	c0.509,0.336,1.102,0.495,1.767,0.495c1.555,0,3.095-0.752,4.626-2.273c0.886-0.893,2.127-2.5,3.712-4.817l-0.747-0.516
	c-0.733,1.09-1.636,2.219-2.708,3.392c-1.062,1.167-1.931,1.753-2.594,1.753c-0.35,0-0.592-0.125-0.721-0.374
	c-0.125-0.247-0.191-0.54-0.191-0.885c0-0.17,0.015-0.333,0.05-0.494c0.041-0.167,0.161-0.642,0.367-1.424l9.191-32.946
	c-0.13-0.173-0.255-0.271-0.385-0.271c-1.487,0.37-2.746,0.648-3.78,0.827c-0.333,0.049-1.043,0.157-2.125,0.303
	c-1.084,0.147-2.044,0.265-2.88,0.386v0.896c1.501-0.014,2.505,0.047,3.012,0.18c0.498,0.139,0.751,0.521,0.751,1.14
	c0,0.143-0.009,0.343-0.031,0.58c-0.018,0.234-0.063,0.469-0.14,0.709L29.338,268.874z M44.238,272.913
	c0,0.615,0.213,1.172,0.635,1.666c0.423,0.497,1.109,0.737,2.049,0.737c1.087,0,2.235-0.459,3.451-1.38
	c1.199-0.915,2.598-2.57,4.188-4.922l0.389-0.564l-0.726-0.419c-1.177,1.514-2.02,2.531-2.513,3.044
	c-0.867,0.948-1.535,1.423-2.018,1.423c-0.35,0-0.599-0.155-0.745-0.454c-0.145-0.3-0.172-0.618-0.089-0.942l5.097-18.409h4.764
	l0.331-1.866h-4.553l1.624-5.983c0.018-0.11,0.026-0.213,0.018-0.314c-0.008-0.09-0.044-0.216-0.1-0.334
	c-0.071-0.035-0.202-0.07-0.39-0.104c-0.093,0-0.175,0.014-0.265,0.055c-0.082,0.054-0.148,0.117-0.204,0.187l-0.44,0.526
	c-1.776,2.088-3.178,3.497-4.209,4.232c-1.027,0.73-2.481,1.492-4.354,2.287c-0.291,0.126-0.476,0.259-0.549,0.377
	c-0.079,0.129-0.118,0.447-0.118,0.938h4.204l-5.336,19.121c-0.06,0.199-0.098,0.392-0.112,0.592
	C44.245,272.597,44.238,272.764,44.238,272.913z M69.383,249.782c-0.082,0-0.984,0.171-2.692,0.491
	c-1.703,0.334-3.272,0.637-4.708,0.937l-1.103,0.216v0.907c0.46-0.06,0.854-0.104,1.191-0.142c0.324-0.033,0.604-0.058,0.819-0.058
	c0.688,0,1.17,0.154,1.442,0.444c0.271,0.292,0.406,0.712,0.406,1.263c0,0.475-0.073,1.084-0.229,1.834
	c-0.154,0.747-0.365,1.6-0.619,2.551l-4.605,16.487h4.233c0.841-2.684,1.517-4.755,2.014-6.217c0.79-2.316,1.504-4.186,2.153-5.589
	c1.064-2.325,2.279-4.475,3.633-6.461c1.36-1.992,2.393-2.998,3.114-2.998c0.145,0,0.272,0.037,0.374,0.102
	c0.102,0.068,0.188,0.152,0.264,0.26l0.331,0.604c0.154,0.294,0.393,0.545,0.68,0.767c0.299,0.226,0.729,0.325,1.303,0.325
	c0.826,0,1.47-0.262,1.938-0.806c0.463-0.541,0.702-1.219,0.702-2.046c0-0.718-0.239-1.375-0.705-1.938
	c-0.466-0.565-1.131-0.854-1.997-0.854c-1.599,0-3.286,1.069-5.064,3.198c-1.774,2.13-3.335,4.48-4.658,7.053l-0.636,1.27
	l2.816-10.688c0.016-0.095,0.035-0.233,0.053-0.419c0-0.124-0.037-0.245-0.104-0.345C69.663,249.831,69.552,249.782,69.383,249.782z
	 M97.188,249.86c-3.868,0-7.609,2.174-11.213,6.507c-3.51,4.166-5.257,8.175-5.257,12.012c0,2.235,0.601,3.954,1.816,5.171
	c1.217,1.221,2.571,1.824,4.054,1.824c0.887,0,1.806-0.167,2.768-0.494c1.23-0.493,2.519-1.335,3.855-2.522
	c1.142-0.991,2.102-2.007,2.881-3.062c0.772-1.049,1.33-1.848,1.664-2.394c-0.233,0.837-0.484,1.872-0.722,3.101
	c-0.255,1.227-0.385,2.184-0.385,2.826c0,0.717,0.193,1.311,0.563,1.777c0.391,0.479,0.935,0.711,1.629,0.711
	c1.072,0,2.198-0.432,3.389-1.297c1.19-0.872,2.767-2.521,4.731-4.941l-0.644-0.582l-1.816,1.755
	c-0.271,0.257-0.495,0.471-0.694,0.646c-0.194,0.171-0.358,0.323-0.529,0.45l-0.493,0.383c-0.286,0.217-0.522,0.386-0.732,0.495
	c-0.199,0.108-0.391,0.162-0.552,0.162c-0.202,0-0.38-0.056-0.524-0.182c-0.114-0.118-0.184-0.3-0.184-0.559
	c0-0.398,0.32-1.996,1.008-4.804c0.416-1.551,0.915-3.388,1.52-5.534l2.729-9.803c0.072-0.256,0.139-0.45,0.185-0.59
	c0.027-0.132,0.091-0.32,0.172-0.56c0.042-0.163,0.042-0.278,0.003-0.34c-0.019-0.063-0.125-0.097-0.287-0.097l-3.189,0.35
	c-0.188,0.024-0.321,0.071-0.38,0.15c-0.059,0.093-0.125,0.237-0.202,0.478l-0.622,2.068l-0.143-0.386
	c-0.23-0.659-0.565-1.189-0.991-1.587C99.783,250.238,98.652,249.86,97.188,249.86z M100.614,254.939
	c0,3.258-1.241,6.899-3.71,10.945c-2.574,4.449-5.241,6.665-8.016,6.665c-0.941,0-1.724-0.33-2.352-1.002
	c-0.644-0.658-0.959-1.73-0.959-3.193c0-2.907,1.141-6.375,3.434-10.398c2.605-4.573,5.42-6.859,8.455-6.859
	c0.862,0,1.607,0.315,2.229,0.938C100.311,252.651,100.614,253.62,100.614,254.939z M113.388,274.713
	c1.205-3.966,2.084-6.709,2.64-8.218c0.555-1.501,1.314-3.058,2.264-4.639c1.295-2.049,2.562-3.8,3.818-5.279
	c2.115-2.488,3.888-3.725,5.287-3.725c0.527,0,0.914,0.158,1.128,0.482c0.213,0.317,0.324,0.695,0.324,1.134
	c0,0.2-0.038,0.537-0.101,0.999c-0.066,0.467-0.202,1.064-0.37,1.792l-3.536,13.322c-0.072,0.254-0.133,0.554-0.171,0.903
	c-0.048,0.35-0.065,0.671-0.065,0.984c0,1.08,0.278,1.821,0.852,2.237c0.569,0.408,1.161,0.609,1.766,0.609
	c1.371,0,2.781-0.717,4.255-2.155c0.878-0.828,2.056-2.255,3.534-4.287l-0.812-0.702c-1.354,1.824-2.331,3.014-2.939,3.572
	c-0.592,0.559-1.123,0.838-1.59,0.838c-0.283,0-0.489-0.112-0.608-0.328c-0.129-0.225-0.195-0.475-0.195-0.747
	c0-0.16,0.035-0.439,0.14-0.832c0.087-0.393,0.171-0.724,0.242-0.997l3.632-13.125c0.161-0.549,0.268-1.059,0.366-1.536
	c0.095-0.472,0.146-0.928,0.146-1.372c0-1.565-0.565-2.651-1.707-3.259c-0.583-0.308-1.288-0.466-2.106-0.466
	c-2.108,0-4.5,1.471-7.183,4.41c-1.526,1.668-3.413,4.195-5.675,7.615l3.664-11.784c-0.036-0.083-0.107-0.167-0.223-0.241
	l-4.903,1.073c-0.58,0.123-1.129,0.232-1.627,0.323c-0.514,0.096-1.362,0.228-2.552,0.413v0.907
	c0.266-0.039,0.498-0.071,0.701-0.102c0.217-0.028,0.434-0.039,0.663-0.039c0.873,0,1.478,0.15,1.773,0.451
	c0.304,0.304,0.464,0.722,0.464,1.257c0,0.348-0.034,0.676-0.101,0.976c-0.066,0.305-0.301,1.174-0.709,2.604l-4.729,16.929H113.388
	z M154.406,249.86c-4.08,0-7.863,1.875-11.366,5.62c-3.421,3.658-5.142,7.486-5.142,11.479c0,2.653,0.765,4.706,2.294,6.168
	c1.53,1.465,3.562,2.188,6.116,2.188c4.039,0,7.821-1.934,11.378-5.806c3.441-3.72,5.169-7.521,5.169-11.406
	c0-2.219-0.636-4.156-1.898-5.785C159.673,250.686,157.494,249.86,154.406,249.86z M142.687,268.83
	c0-3.787,1.169-7.632,3.483-11.537c2.464-4.189,5.105-6.279,7.922-6.279c1.718,0,2.896,0.796,3.536,2.391
	c0.338,0.838,0.499,1.94,0.499,3.312c0,3.225-0.987,6.779-2.952,10.631c-2.315,4.499-4.992,6.738-7.994,6.738
	c-1.471,0-2.588-0.495-3.354-1.496C143.06,271.597,142.687,270.345,142.687,268.83z M176.205,250.057
	c-0.785,0.182-1.616,0.349-2.499,0.492c-0.667,0.108-1.348,0.216-2.021,0.318c-0.655,0.102-1.751,0.236-3.276,0.418v0.906
	c1.445,0,2.411,0.078,2.894,0.235c0.487,0.153,0.729,0.565,0.729,1.218c0,0.186-0.018,0.37-0.045,0.545
	c-0.042,0.19-0.095,0.387-0.14,0.611l-3.939,14.073c-0.206,0.776-0.346,1.355-0.416,1.751c-0.07,0.387-0.105,0.849-0.105,1.38
	c0,0.892,0.251,1.677,0.789,2.329c0.513,0.656,1.184,0.982,1.966,0.982c1.34,0,2.728-0.654,4.157-1.967
	c0.901-0.846,2.041-2.22,3.423-4.133l0.275-0.387l-0.723-0.604c-0.876,1.188-1.63,2.096-2.244,2.737
	c-1.016,1.081-1.846,1.619-2.474,1.619c-0.381,0-0.604-0.112-0.694-0.328c-0.116-0.202-0.176-0.44-0.176-0.72
	c0-0.194,0.134-0.812,0.395-1.856l5.581-19.567c0.015-0.089-0.021-0.165-0.13-0.226
	C177.439,249.812,176.986,249.876,176.205,250.057z M176.854,243.887c0.754,0,1.414-0.281,1.944-0.865
	c0.548-0.565,0.824-1.277,0.824-2.11c0-0.854-0.276-1.562-0.824-2.148c-0.53-0.579-1.19-0.875-1.944-0.875
	c-0.744,0-1.398,0.296-1.923,0.875c-0.54,0.587-0.813,1.295-0.813,2.148c0,0.815,0.273,1.517,0.813,2.104
	C175.455,243.602,176.109,243.887,176.854,243.887z M191.97,249.782c-0.091,0-0.991,0.171-2.698,0.491
	c-1.703,0.334-3.277,0.637-4.712,0.937l-1.105,0.216v0.907c0.467-0.06,0.858-0.104,1.186-0.142c0.339-0.033,0.615-0.058,0.834-0.058
	c0.685,0,1.153,0.154,1.428,0.444c0.276,0.292,0.419,0.712,0.419,1.263c0,0.475-0.077,1.084-0.233,1.834
	c-0.154,0.747-0.359,1.6-0.624,2.551l-4.607,16.487h4.246c0.839-2.684,1.498-4.755,2.007-6.217c0.789-2.316,1.504-4.186,2.146-5.589
	c1.079-2.325,2.287-4.475,3.651-6.461c1.347-1.992,2.391-2.998,3.099-2.998c0.151,0,0.276,0.037,0.369,0.102
	c0.109,0.068,0.194,0.152,0.266,0.26l0.336,0.604c0.16,0.294,0.401,0.545,0.687,0.767c0.298,0.226,0.724,0.325,1.293,0.325
	c0.83,0,1.486-0.262,1.946-0.806c0.472-0.541,0.701-1.219,0.701-2.046c0-0.718-0.229-1.375-0.701-1.938
	c-0.46-0.565-1.131-0.854-1.996-0.854c-1.602,0-3.299,1.069-5.07,3.198c-1.788,2.13-3.329,4.48-4.653,7.053l-0.638,1.27
	l2.806-10.688c0.025-0.095,0.037-0.233,0.057-0.419c0-0.124-0.031-0.245-0.092-0.345C192.248,249.831,192.13,249.782,191.97,249.782
	z"/>
</svg>
